# xmcd CD database file
#
# Track frame offsets:
#	150
#	14110
#	39920
#	60450
#	81318
#	101228
#	118535
#	141045
#
# Disc length: 2140 seconds
#
# Revision: 0
# Processed by: cddbd v1.5.2PL0 Copyright (c) Steve Scherf et al.
# Submitted via: CDex 1.70beta2
#
DISCID=68085a08
DTITLE=Budd Johnson - French Cookin' 
DYEAR=1963
DGENRE=Jazz
TTITLE0=La Petite Valse
TTITLE1=Le Grisbi
TTITLE2=I Can Live With The Blues
TTITLE3=Darling Je Vous Aime Beaucoup
TTITLE4=Under Paris Skies
TTITLE5=Hugues' Blues
TTITLE6=Je Vous Aime
TTITLE7=Je T' Aime
EXTD=YEAR: 1963
EXTT0=
EXTT1=
EXTT2=
EXTT3=
EXTT4=
EXTT5=
EXTT6=
EXTT7=
PLAYORDER=
